# xmcd CD database file
#
# Track frame offsets:
#	150
#	18364
#	34405
#	53930
#	75099
#	91824
#	104821
#	118815
#	134996
#	146872
#	164320
#	172356
#	189254
#	201883
#	233502
#	249851
#	276374
#	297417
#	315996
#	318983
#	327967
#
# Disc length: 4794 seconds
#
# Revision: 0
# Processed by: cddbd v1.5.2PL0 Copyright (c) Steve Scherf et al.
# Submitted via: CDex 1.70beta2
#
DISCID=3612b815
DTITLE=Jug and Bottle - Barrelhouse Blues
DYEAR=2002
DGENRE=Blues
TTITLE0=Rollin' and Tumblin'
TTITLE1=Sporting Life
TTITLE2=Take This Hammer
TTITLE3=Georgia on My Mind
TTITLE4=Sadie Green
TTITLE5=Banty Rooster
TTITLE6=Ain't Misbehavin'
TTITLE7=Take Your Hands Off Her
TTITLE8=She Done Sold It Out
TTITLE9=TV Dinner
TTITLE10=Pick A Bale Of Cotton
TTITLE11=Sweet Home Chicago
TTITLE12=Talk To Your Daughter
TTITLE13=Outskirts of Town
TTITLE14=Round and Round
TTITLE15=Another Cup of Coffee/Doctor Jazz
TTITLE16=Floating Bridge
TTITLE17=How Long Blues
TTITLE18=Choo Choo Ch'Boogie
TTITLE19=Stealin'
TTITLE20=Long Lost John
EXTD=YEAR: 2002
EXTT0=
EXTT1=
EXTT2=
EXTT3=
EXTT4=
EXTT5=
EXTT6=
EXTT7=
EXTT8=
EXTT9=
EXTT10=
EXTT11=
EXTT12=
EXTT13=
EXTT14=
EXTT15=
EXTT16=
EXTT17=
EXTT18=
EXTT19=
EXTT20=
PLAYORDER=
